<?xml version="1.0" encoding="UTF-8"?>
<svg width="81px" height="13px" viewBox="0 0 81 13" version="1.1"
    xmlns="http://www.w3.org/2000/svg"
    xmlns:xlink="http://www.w3.org/1999/xlink">
    <!-- Generator: Sketch 59.1 (86144) - https://sketch.com -->
    <title>编组 5</title>
    <desc>Created with Sketch.</desc>
    <g id="新版" stroke="none" stroke-width="1">
        <g id="切图" transform="translate(-913.000000, -415.000000)">
            <g id="编组-5" transform="translate(913.000000, 414.000000)">
                <path d="M0.5,12.6783859 L79.9027911,12.6783859 C80.1789334,12.6783859 80.4027911,12.9022435 80.4027911,13.1783859 C80.4027911,13.4545283 80.1789334,13.6783859 79.9027911,13.6783859 L0.5,13.6783859 C0.223857625,13.6783859 3.38176876e-17,13.4545283 0,13.1783859 C-3.38176876e-17,12.9022435 0.223857625,12.6783859 0.5,12.6783859 Z" id="矩形"></path>
                <path d="M65.5931162,6.91492233 L82.295246,6.74855758 C82.561519,6.74590532 82.779526,6.95961216 82.7821783,7.22588518 C82.7821942,7.22748591 82.7822022,7.22908671 82.7822022,7.23068752 C82.7822022,7.50042041 82.5649655,7.71983171 82.295246,7.72251831 L65.5931162,7.88888306 C65.3268432,7.89153532 65.1088362,7.67782848 65.1061839,7.41155546 C65.1061679,7.40995473 65.10616,7.40835393 65.10616,7.40675311 C65.10616,7.13702023 65.3233967,6.91760892 65.5931162,6.91492233 Z" id="矩形" transform="translate(73.944181, 7.318720) rotate(-315.000000) translate(-73.944181, -7.318720) "></path>
            </g>
        </g>
    </g>
</svg>